# Blender v2.90.1 OBJ File: 'simplePlant5.blend'
# www.blender.org
mtllib Flower.mtl
o Plane
v -0.064042 -0.004354 0.000000
v 0.064042 -0.004354 0.000000
v -0.064042 0.074935 0.000000
v 0.064042 0.074935 0.000000
v -0.064042 -0.543040 0.000000
v 0.064042 -0.543040 0.000000
v -0.154691 0.072515 0.122707
v 0.154691 0.072515 0.122707
v -0.143368 0.077744 -0.112039
v 0.143368 0.077744 -0.112039
v -0.038846 0.121107 0.285916
v 0.038846 0.121107 0.285916
v -0.054086 0.119854 -0.246609
v 0.054086 0.119854 -0.246609
v -0.044452 0.203314 0.000000
v 0.044452 0.203314 0.000000
v -0.020830 0.441966 0.018410
v 0.020830 0.441966 0.018410
v -0.055356 0.506366 0.096032
v 0.055356 0.506366 0.096032
v -0.066773 0.532209 -0.044053
v 0.066773 0.532209 -0.044053
v -0.100687 0.519309 0.025876
v 0.100764 0.519555 0.024539
vn 0.0000 0.0000 1.0000
vn 0.0000 -0.8474 0.5309
vn 0.0000 -0.8066 -0.5911
vn 0.0000 -0.9544 -0.2986
vn 0.0000 -0.9584 0.2854
vn 0.0000 -0.0769 0.9970
vn 0.0000 -0.7696 0.6385
vn 0.0000 -0.5691 -0.8222
vn -0.6484 -0.6280 -0.4303
vn 0.6440 -0.6291 -0.4352
vn -0.6513 -0.7006 0.2916
vn 0.6556 -0.6982 0.2876
usemtl Material.001
s off
f 1//1 2//1 4//1 3//1
f 2//1 1//1 5//1 6//1
f 1//2 2//2 8//2 7//2
f 2//3 1//3 9//3 10//3
f 10//4 9//4 13//4 14//4
f 7//5 8//5 12//5 11//5
f 3//1 4//1 16//1 15//1
f 15//6 16//6 18//6 17//6
usemtl Material.002
f 17//7 18//7 20//7 19//7
f 18//8 17//8 21//8 22//8
f 17//9 23//9 21//9
f 18//10 22//10 24//10
f 23//11 17//11 19//11
f 24//12 20//12 18//12
o Plane.001
v -0.064042 -0.004354 0.000000
v 0.064042 -0.004354 0.000000
v -0.064042 0.074935 0.000000
v 0.064042 0.074935 0.000000
v -0.064042 -0.543040 0.000000
v 0.064042 -0.543040 0.000000
v -0.154691 0.072515 0.122707
v 0.154691 0.072515 0.122707
v -0.143368 0.077744 -0.112039
v 0.143368 0.077744 -0.112039
v -0.038846 0.121107 0.285916
v 0.038846 0.121107 0.285916
v -0.054086 0.119854 -0.246609
v 0.054086 0.119854 -0.246609
v -0.044452 0.203314 0.000000
v 0.044452 0.203314 0.000000
v -0.020830 0.441966 0.018410
v 0.020830 0.441966 0.018410
v -0.055356 0.506366 0.096032
v 0.055356 0.506366 0.096032
v -0.066773 0.532209 -0.044053
v 0.066773 0.532209 -0.044053
v -0.100687 0.519309 0.025876
v 0.100764 0.519555 0.024539
vn 0.0000 0.0000 -1.0000
vn 0.0000 0.8474 -0.5309
vn 0.0000 0.8066 0.5911
vn 0.0000 0.9544 0.2986
vn 0.0000 0.9584 -0.2854
vn 0.0000 0.0769 -0.9970
vn 0.0000 0.7696 -0.6385
vn 0.0000 0.5691 0.8222
vn 0.6484 0.6280 0.4303
vn -0.6440 0.6291 0.4352
vn 0.6513 0.7006 -0.2916
vn -0.6556 0.6982 -0.2876
usemtl Material.001
s off
f 25//13 27//13 28//13 26//13
f 26//13 30//13 29//13 25//13
f 25//14 31//14 32//14 26//14
f 26//15 34//15 33//15 25//15
f 34//16 38//16 37//16 33//16
f 31//17 35//17 36//17 32//17
f 27//13 39//13 40//13 28//13
f 39//18 41//18 42//18 40//18
usemtl Material.002
f 41//19 43//19 44//19 42//19
f 42//20 46//20 45//20 41//20
f 41//21 45//21 47//21
f 42//22 48//22 46//22
f 47//23 43//23 41//23
f 48//24 42//24 44//24
